<svg xmlns="http://www.w3.org/2000/svg" viewBox="0 0 32 32" fill-rule="evenodd">
    <path fill="#f90" d="M28.312 28.26C25.003 30.7 20.208 32 16.08 32c-5.8 0-11.002-2.14-14.945-5.703-.3-.28-.032-.662.34-.444C5.73 28.33 11 29.82 16.426 29.82a29.73 29.73 0 0 0 11.406-2.332c.56-.238 1.03.367.48.773m1.376-1.575c-.42-.54-2.796-.255-3.86-.13-.325.04-.374-.243-.082-.446 1.9-1.33 4.994-.947 5.356-.5s-.094 3.56-1.87 5.044c-.273.228-.533.107-.4-.196.4-.996 1.294-3.23.87-3.772" />
    <path fill="#221f1f" d="M18.43 13.864c0 1.692.043 3.103-.812 4.605-.7 1.22-1.8 1.973-3.005 1.973-1.667 0-2.644-1.27-2.644-3.145 0-3.7 3.316-4.373 6.462-4.373v.94m4.38 10.584c-.287.257-.702.275-1.026.104-1.44-1.197-1.704-1.753-2.492-2.895-2.382 2.43-4.074 3.157-7.158 3.157-3.658 0-6.498-2.254-6.498-6.767 0-3.524 1.905-5.924 4.63-7.097 2.357-1.038 5.65-1.22 8.165-1.5V8.9c0-1.032.08-2.254-.53-3.145-.525-.8-1.54-1.13-2.437-1.13-1.655 0-3.127.85-3.487 2.608-.073.4-.36.776-.757.794L7 7.555c-.354-.08-.75-.366-.647-.9C7.328 1.54 11.945 0 16.074 0c2.113 0 4.874.562 6.54 2.162 2.113 1.973 1.912 4.605 1.912 7.47V16.4c0 2.034.843 2.925 1.637 4.025.275.4.336.86-.018 1.154a184.26 184.26 0 0 0-3.328 2.883l-.006-.012" />
</svg>
