<?xml version="1.0" encoding="UTF-8" standalone="no"?>
<svg version="1.0" width="166.15625" height="166.1875" xmlns="http://www.w3.org/2000/svg">
    <path fill="#1793d1" d="M 83.0625,0 C 75.66563,18.135157 71.204196,29.997682 62.96875,47.593749 68.01811,52.946071 74.215961,59.179109 84.28125,66.218745 73.460077,61.765905 66.078714,57.295354 60.562501,52.656252 50.0227,74.649165 33.509864,105.97709 7.0739747e-8,166.1875 26.337628,150.98233 46.75409,141.60818 65.78125,138.03125 64.964216,134.5172 64.499701,130.71607 64.531251,126.75 l 0.03125,-0.84375 c 0.417917,-16.87382 9.195665,-29.849787 19.593751,-28.968747 10.398092,0.88104 18.480408,15.282417 18.062498,32.156247 -0.0786,3.17512 -0.43674,6.22955 -1.0625,9.0625 18.82058,3.68164 39.01873,13.03179 65,28.03125 -5.12299,-9.4318 -9.69572,-17.93388 -14.0625,-26.03125 -6.87838,-5.33121 -14.05289,-12.2698 -28.6875,-19.78125 10.05899,2.61375 17.2611,5.62932 22.875,9 C 101.88297,46.71316 98.287664,35.729108 83.0625,0 Z" />
</svg>
