<?xml version="1.0" encoding="utf-8"?><!-- Uploaded to: SVG Repo, www.svgrepo.com, Generator: SVG Repo Mixer Tools -->
<svg width="800px" height="800px" fill="none" viewBox="0 0 24 24" xmlns="http://www.w3.org/2000/svg">
<path stroke="#a89984" d="M9.00002 13C8.34002 13.33 7.79002 13.82 7.38002 14.43C7.15002 14.78 7.15002 15.22 7.38002 15.57C7.79002 16.18 8.34002 16.67 9.00002 17" stroke-width="1.5" stroke-linecap="round" stroke-linejoin="round"/>
<path stroke="#a89984" d="M15.21 13C15.87 13.33 16.42 13.82 16.83 14.43C17.06 14.78 17.06 15.22 16.83 15.57C16.42 16.18 15.87 16.67 15.21 17" stroke-width="1.5" stroke-linecap="round" stroke-linejoin="round"/>
<path stroke="#a89984" d="M9 22H15C20 22 22 20 22 15V9C22 4 20 2 15 2H9C4 2 2 4 2 9V15C2 20 4 22 9 22Z" stroke-width="1.5" stroke-linecap="round" stroke-linejoin="round"/>
<path stroke="#a89984" d="M2.22998 8.01L21.45 8" stroke-width="1.5" stroke-linecap="round" stroke-linejoin="round"/>
</svg>
