<svg width="356" height="131" viewBox="0 0 356 131" xmlns="http://www.w3.org/2000/svg"><path d="M175.275 33.11c3.1 0 6.114.753 8.926 2.114 15.68 6.167 30.547 27.221 30.942 47.152 1.724 21.737-8.023 48.968-28.458 48.968-13.566 0-25.484-8.96-32.771-23.366-4.897-7.936-7.924-18.62-7.924-30.374 0-24.514 13.127-44.494 29.285-44.494zM24.462 34.628c2.17 0 4.244.226 6.18.666 13.855 1.29 23.876 9.176 27.646 21.846 3.75 12.575 4.553 26.6-6.736 39.278l9.337 10.402v24.016h-52L0 119.181v-5.388l.284-.136c10.43-5.693 17.872-13.119 22.043-21.84-6.062-2.255-10.005-5.708-14.193-11.405a34.67 34.67 0 01-3.57-5.907c-1.907-2.844-3.175-6.523-3.266-10.92-.12-6.922 2.025-16.58 8.35-22.926 3.925-3.955 8.816-5.996 14.55-6.03h.265zm84.939.616l10.442 10.207v47.677l1.24 1.52h.048v.06l.575.684 9.1 11.02v4.35h-8.252v4.382l8.039 10.38v4.887H90.106l-11.51-11.23v-4.769h.538c2.858 0 4.417-.15 6.417-1.567.93-.653 1.579-1.268 2.1-1.979H69.223l-10.205-10.613h.036V94.38l.156-.16c8.213-9.188 12.193-14.995 17.716-25.894C82.93 56.46 85.368 49.267 87.75 36.252l.093-.527.52.097c3.54.735 5.622.961 8.964.961h.692c4.226-.046 6.645-.337 10.733-1.363l.649-.176zm236.327-.037l10.54 11.28V72.08h-5.65l-10.402-10.384s-.22-6.449-3.07-8.744c-2.62-2.108-5.691-2.262-6.37-2.27h-.115l-.022.001.1 11.651h4.565l11.189 12.674V95.93l9.986 8.811v25.338h-54.574l-10.66-11.32v-4.535l.502-.004c2.19-.137 3.533-.703 5.11-2.172 1.846-1.709 2.538-3.336 2.439-5.83V50.601l-8.47-10.605v-4.79h54.902zm-86.527-.412c1.69.163 3.385.564 5.029 1.204 12.11 2.682 20.818 12.06 22.116 24.462 1.013 9.627-1.727 16.652-9.12 23.28 2.948 2.176 4.419 3.777 6.29 6.861 1.75 2.835 2.446 4.66 3.057 7.893v18.29l6.07 8.115v4.78h-19.114l-12.15-4.554v4.148h-36.627L214.41 118.76h-.027v-4.522l.493-.017c2.646-.232 4.299-1.108 5.916-3.143 1.247-1.563 1.4-3.02 1.521-4.83l.019-.288c.02-.339.037-.684.092-1.07V50.776l-8.69-10.978v-5.004h45.466zm-83.926-.632c-15.563 0-28.221 19.483-28.221 43.441 0 23.961 12.658 43.46 28.22 43.46 15.587 0 28.249-19.499 28.249-43.46 0-23.958-12.662-43.44-28.248-43.44zm-150.813 1.51h-.238c-5.468.052-10.077 1.961-13.828 5.694C4.3 47.49 2.254 56.853 2.364 63.56c.183 10.022 6.708 16.218 12.678 16.218 5.258 0 8.88-4.458 9.72-11.876.832-7.594-.857-11.206-2.41-12.88-1.103-1.188-2.527-1.825-4.133-1.825-2.775 0-5.797 1.825-8.116 4.85l-.492.676-.401-.726c-1.635-2.913-1.07-8.388 1.249-12.166 1.35-2.17 3.825-4.81 8.124-4.81h.218c2.073.041 3.844.876 5.268 2.477 5.878 6.711 4.27 25.933 2.775 36.77-1.9 14.111-10.806 25.893-25.785 34.13v3.747h48.228V95.691h-2.893c-.246 1.8-.995 3.042-2.528 4.261-1.88 1.475-3.341 1.475-5.796 1.34H23.029l1.788-.954c15.243-8.259 24.06-20.82 24.252-34.507.145-10.012-2.775-18.482-8.224-23.844-4.217-4.19-9.74-6.315-16.383-6.315zm83.889.915c-3.815.93-6.225 1.188-10.314 1.223h-.71c-3.25 0-5.351-.2-8.636-.844-2.365 12.79-4.838 20.018-10.834 31.817-5.541 10.935-9.528 16.785-17.734 25.984v4.472h29.535l-.027 10.061c-.766 1.985-1.671 3.112-3.451 4.371-2.171 1.554-3.98 1.762-6.516 1.768v2.705h40.187v-3.323h-3.156c-2.292 0-3.926-.096-5.75-1.56-1.544-1.214-2.256-2.373-2.594-4.254V99.03h11.73v-3.338h-11.73V36.588zm150.804-.79l-44.36.015v2.897c.265 0 .512-.029.8-.029 2.925 0 4.924.848 6.475 2.741 1.142 1.407 1.186 2.613 1.224 4.037.026.653.045 1.385.18 2.226v57.264c-.035.397-.035.751-.08 1.065-.138 2.04-.274 3.79-1.762 5.697-1.708 2.14-3.514 3.164-6.18 3.476v2.563h34.767v-2.726c-2.811-.057-4.857-1.072-6.645-3.33-1.48-1.913-1.604-3.653-1.614-5.763l-.001-27.474 1.652-.047h1.168c2.674 0 5.732.197 7.575 2.03 1.915 1.921 2.282 4.591 2.583 6.712l-.192 20.295c.048 2.43.485 3.866 1.854 5.961 1.58 2.364 3.048 3.521 5.73 4.535h19.578v-2.296h-.015c-2.228 0-3.935-.756-5.495-2.449-1.672-1.842-1.672-3.408-1.635-5.81v-16.37c-.501-3.133-1.325-5.002-3.377-7.592-2.355-2.943-4.363-4.397-7.994-5.64l-1.207-.409 1.142-.54c8.306-3.942 13.05-8.687 12.734-21.365-.312-11.876-8.747-18.884-16.905-19.674zm85.505.446h-52.793v2.691c2.776 0 4.81.952 6.615 3.103 1.525 1.81 1.646 3.34 1.8 5.452l.055.872v57.85c.128 2.723-.694 4.677-2.766 6.59-1.643 1.525-3.093 2.2-5.25 2.385v2.563h52.558V95.491h-2.02c-.435 5.442-2.133 8.974-6.186 12.935-4.51 4.4-8.954 6.265-14.905 6.265-.72 0-1.452-.017-2.253-.077l-.474-.024V78.82l.562.015c.998.084 1.946.051 2.805.03 2.427-.065 4.344-.046 5.987 1.37 1.669 1.46 2.427 2.777 2.775 4.86v7.07h3.723V63.691h-2.838v3.215c-.211 2.362-.885 3.842-2.556 5.543-2.218 2.304-4.7 2.484-7.295 2.484h-1.23c-.446-.039-.932-.039-1.387-.039h-.546V39.8l.498-.032c5.708-.319 9.475.82 14.049 4.268 5.488 4.212 7.886 9.058 7.804 15.695h3.268V36.244zm-169.185 2.73c3.286 0 5.95 2.826 5.95 6.318v64.338c0 3.5-2.664 6.343-5.95 6.343-3.297 0-5.971-2.843-5.971-6.343V45.292c0-3.492 2.674-6.319 5.97-6.319zm156.178 54.241h-1.014v18.414c1.818-.939 3.55-2.242 5.295-3.933 1.385-1.377 2.483-2.67 3.34-4.045-1.616-2.019-5.631-7.096-7.621-10.436zM89.658 54.01v41.682H65.56v-.513c4.829-6.949 7.339-10.97 11.51-18.283 4.976-8.7 7.503-13.738 11.51-22.875v-.01h1.077zm-1.076 27.247L81.06 94.647h7.522v-13.39zm153.912-40.97c3.7 0 7.936-.38 10.207 1.916 1.935 1.963 2.31 4.96 2.603 7.207v16.264c-.292 2.911-.914 5.26-3.05 6.981-2.152 1.817-4.832 1.93-8.534 1.935h-1.226zM33.224 1.533c1.982 0 5.05.256 6.362.48l.16.19c.16 1.344.287 3.582.319 5.724l-.607.032c-1.087-2.206-2.366-3.964-3.9-5.403-.8-.224-1.503-.32-2.43-.32-2.11 0-3.516 1.119-3.516 3.037 0 1.919 1.15 2.686 5.242 4.348 3.869 1.599 5.85 3.037 5.85 6.554 0 4.284-3.388 6.682-7.864 6.682-1.886 0-4.283-.16-6.65-.64-.32-2.557-.511-4.188-.511-6.522l.64-.096c1.087 2.302 2.397 4.188 3.964 6.139.927.319 1.694.383 2.589.383 2.238 0 3.837-1.215 3.837-3.612 0-2.11-1.631-2.973-4.956-4.188-4.251-1.567-6.074-3.421-6.074-6.49 0-3.676 3.517-6.298 7.545-6.298zm39.755 4.764c3.357 0 6.33 1.342 6.33 4.603 0 .767-.096 1.375-.352 1.663-.191.127-.415.19-.703.19-2.461 0-4.827-.16-7.353-.16 0 0-.032.32-.032.545 0 2.973 1.695 5.882 4.796 5.882 1.374 0 2.46-.16 3.516-.48l.16.32c-1.247 2.526-2.91 3.933-6.202 3.933-4.156 0-7.353-3.293-7.353-7.833 0-5.18 3.517-8.663 7.193-8.663zm-23.316 0c4.124 0 7.417 3.132 7.417 8.12 0 5.115-3.836 8.376-7.928 8.376-3.901 0-7.481-3.101-7.481-8.152 0-4.668 3.612-8.344 7.992-8.344zM63.743 0l.607.064s-.119 2.063-.17 4.143l-.01.479c-.007.398-.011.79-.011 1.164v13.523c0 1.854.063 2.11.319 2.27l.799.223s.064.256.064.576h-7.768c0-.32.064-.576.064-.576l.83-.223c.257-.16.32-.32.32-2.27V4.27c-.007-1.988-.105-2.234-.351-2.48l-.831-.256c0-.288.064-.48.064-.48S60.706.16 63.743 0zm-44.75 0l.608.064s-.102 1.758-.157 3.664l-.013.479a68.68 68.68 0 00-.022 1.643v13.523c0 1.854.064 2.11.32 2.27l.799.223s.064.256.064.576h-7.768c0-.32.063-.576.063-.576l.832-.223c.255-.16.319-.32.319-2.27V4.27c-.008-1.988-.106-2.234-.351-2.48l-.832-.256c0-.288.064-.48.064-.48S15.957.16 18.994 0zm-7.046 1.982c0 .447-.064.639-.064.639l-1.471.256c-.351.319-.447.799-.447 3.996V17.55c0 3.197.096 3.676.447 3.996l1.47.256s.065.19.065.639H2.452c0-.448.064-.64.064-.64l1.47-.255c.352-.32.448-.8.448-3.996V6.59c-.006-2.943-.107-3.404-.447-3.713L2.516 2.62s-.064-.192-.064-.64zm37.396 4.987c-1.507 0-2.027 2.771-2.145 5.717l-.016.492c-.009.33-.012.658-.012.984 0 3.836.415 7.896 2.429 7.896 1.822 0 2.014-3.9 2.014-7.29l-.001-.259c-.019-3.724-.456-7.54-2.27-7.54zm23.444-.096c-1.182 0-1.918 1.95-1.918 4.955 0 .16.064.224.256.224l2.59-.096c.383-.128.607-.96.607-2.366 0-1.758-.48-2.717-1.535-2.717z" fill="#000" fill-rule="evenodd"/></svg>